<?xml version="1.0" encoding="UTF-8" standalone="no"?>
<svg xmlns="http://www.w3.org/2000/svg" height="100%" viewBox="0 0 472.64957 676.49573" width="100%" version="1.1" preserveAspectRatio="none">
 <g transform="translate(-0.24321125,-0.45393944)">
 <g transform="translate(-778.52632,-8)">
 <rect style="color:#000000;" height="676.5" width="472.65" y="8.4539" x="778.77" fill="#617f41"/>
 <rect style="color:#000000;" fill-opacity="0.1" height="58.88" width="387.84" y="110.66" x="820.8" fill="#000"/>
 <rect style="color:#000000;" fill-opacity="0.1" height="58.88" width="387.7" y="228.56" x="820.94" fill="#000"/>
 <rect style="color:#000000;" fill-opacity="0.1" height="58.333" width="387.57" y="347" x="821.08" fill="#000"/>
 <rect style="color:#000000;" fill-opacity="0.1" height="59.016" width="387.7" y="464.49" x="820.94" fill="#000"/>
 <rect style="color:#000000;" fill-opacity="0.1" height="59.153" width="387.7" y="582.52" x="820.94" fill="#000"/>
 <rect style="color:#000000;" height="591.03" width="387.61" stroke="#FFF" y="50.762" x="821.08" stroke-width="1" fill="none"/>
 <path d="m963.14,50.845,0,31.127,104.08,0,0-31.268" stroke="#FFF" stroke-width="1px" fill="none"/>
 <path d="m900.19,50.704,0,94.225,230,0,0-94.225" stroke="#FFF" stroke-width="1px" fill="none"/>
 <path d="m820.89,346.9,387.75,0" stroke="#FFF" stroke-width="1px" fill="none"/>
 <path d="m1067.2,641.69,0-30.704-104.08,0,0,30.563" stroke="#FFF" stroke-width="1px" fill="none"/>
 <path d="m1130.2,641.55,0-93.521-229.86,0,0,93.521" stroke="#FFF" stroke-width="1px" fill="none"/>
 <path d="m312.53,353.67c0,28.552-23.146,51.697-51.697,51.697-28.552,0-51.697-23.146-51.697-51.697,0-28.552,23.146-51.697,51.697-51.697,28.552,0,51.697,23.146,51.697,51.697z" transform="translate(754.41058,-6.7287491)" stroke="#FFF" stroke-width="1" fill="none"/>
 <path d="m1056.2,144.92c-9.5083,12.193-24.337,20.034-40.997,20.034-16.654,0-31.477-7.8351-40.986-20.02" stroke="#FFF" stroke-width="1" fill="none"/>
 <path d="m974.49,548.03c9.4619-12.104,24.199-19.885,40.753-19.885,16.562,0,31.306,7.7887,40.767,19.903" stroke="#FFF" stroke-width="1" fill="none"/>
 <path d="m1203.6,641.61c0-2.7937,2.2647-5.0584,5.0584-5.0584" stroke="#FFF" stroke-width="1" fill="none"/>
 <path d="m821.08,637.07c2.5788,0,4.6693,2.0905,4.6693,4.6693" stroke="#FFF" stroke-width="1" fill="none"/>
 <path d="m825.88,50.822c0,2.6504-2.1486,4.799-4.799,4.799" stroke="#FFF" stroke-width="1" fill="none"/>
 <path d="m1208.5,55.88c-2.7937,0-5.0584-2.2647-5.0584-5.0584" stroke="#FFF" stroke-width="1" fill="none"/>
 <path d="m262.26,119.72c0,0.81022-0.65681,1.467-1.467,1.467-0.81022,0-1.467-0.65681-1.467-1.467,0-0.81022,0.65681-1.467,1.467-1.467,0.81022,0,1.467,0.65682,1.467,1.467z" transform="translate(754.41058,-6.7287491)" fill="#FFF"/>
 <path d="m262.26,119.72c0,0.81022-0.65681,1.467-1.467,1.467-0.81022,0-1.467-0.65681-1.467-1.467,0-0.81022,0.65681-1.467,1.467-1.467,0.81022,0,1.467,0.65682,1.467,1.467z" transform="translate(754.41103,227.24291)" fill="#FFF"/>
 <path d="m262.26,119.72c0,0.81022-0.65681,1.467-1.467,1.467-0.81022,0-1.467-0.65681-1.467-1.467,0-0.81022,0.65681-1.467,1.467-1.467,0.81022,0,1.467,0.65682,1.467,1.467z" transform="translate(754.41103,460.2684)" fill="#FFF"/>
 </g>
 </g>
</svg>